<svg version="1.1" id="Layer_1" xmlns="http://www.w3.org/2000/svg" xmlns:xlink="http://www.w3.org/1999/xlink" x="0px" y="0px"
	 width="100%" viewBox="400 80 480 580" enable-background="new 400 80 480 580" xml:space="preserve">
<path fill="#4A9FD1" opacity="1.000000" stroke="none" 
	d="
M542.285706,531.722351 
	C517.240662,502.683838 491.751709,474.464935 467.772217,445.016846 
	C426.812592,394.716339 410.114136,336.536865 419.949921,272.583618 
	C433.839935,182.269318 484.767883,119.933525 571.488586,91.040131 
	C696.571106,49.365475 831.846619,123.762115 859.272949,256.146973 
	C877.006226,341.744354 851.598206,415.195953 786.206360,473.885132 
	C760.416382,497.031708 733.875305,519.341370 707.673950,542.029541 
	C706.316711,543.204712 704.937500,544.354614 703.261963,545.776367 
	C695.958740,537.326538 688.895264,529.151672 681.829163,520.979187 
	C640.414917,473.080414 598.892212,425.274872 557.615845,377.257599 
	C516.227722,329.110382 521.841187,257.798950 569.924316,217.680344 
	C605.541687,187.962646 657.233765,183.877762 697.625000,207.589005 
	C737.593323,231.052002 758.596313,277.105591 750.344421,322.825714 
	C747.797852,336.935333 743.080627,350.199371 735.340149,362.229370 
	C732.311829,366.935944 728.553650,371.337677 724.453186,375.153046 
	C717.404053,381.711945 709.015869,385.595825 699.318054,381.896179 
	C688.824158,377.892792 682.114441,370.091522 679.937073,358.898956 
	C678.250427,350.228851 680.801270,342.596710 685.754272,335.366425 
	C699.597595,315.158325 699.171936,289.171112 684.994080,270.359253 
	C666.904114,246.356598 631.552124,241.376694 607.810669,259.486633 
	C583.506470,278.025848 578.528992,313.778381 597.889038,337.396088 
	C616.369202,359.940308 635.838196,381.674469 654.891235,403.748596 
	C671.767334,423.300659 688.667542,442.832001 705.563904,462.366547 
	C706.633972,463.603729 707.763977,464.789032 709.178955,466.341705 
	C737.783081,440.258148 770.125488,418.380707 788.650757,382.815216 
	C841.434387,281.479462 783.657715,157.673950 668.383484,138.275330 
	C579.515198,123.320351 495.766602,180.329529 477.479462,268.326324 
	C466.579559,320.776093 477.488159,369.122925 512.149841,410.302948 
	C560.647278,467.920624 610.470520,524.421814 659.642151,581.473389 
	C664.739441,587.387573 669.826477,593.444946 673.935852,600.047363 
	C681.687927,612.502563 679.291382,623.524048 667.535156,633.636597 
	C655.760559,643.764954 644.620117,644.475403 633.373901,635.047241 
	C627.920410,630.475281 623.090393,625.079529 618.401917,619.688232 
	C593.035034,590.518799 567.800781,561.234070 542.285706,531.722351 
z"/>
</svg>